# File created by Blade
# Date/Time:  Wed Jan 21 17:21:31 2015
# Frame Rate: 120.000 fps
#------------------------------------------------------
:FULLY-SPECIFIED
:DEGREES
291
root 19.749899 33.174033 -25.533048 -132.319919 14.893938 -178.190918
Spine 57.029634 15.747480 -9.741941
Head -26.903255 -4.090210 4.463223
LeftShoulder 25.646130 -52.195779 -3.777660
LeftArm 29.862938 17.185295 -56.622334
LeftForeArm -7.530776 -0.000000 8.417538
LeftHand -2.540464 -0.000000 10.347918
LeftHandThumb1 -26.253704 0.000000 33.147579
RightShoulder 21.552396 16.378401 -9.313622
RightArm 51.698103 14.090865 52.351382
RightForeArm -9.772616 -0.000000 12.581773
RightHand -4.628971 -0.000000 -12.764519
RightHandThumb1 -24.326973 -0.000000 -32.862282
LeftUpLeg -79.720047 0.451132 -9.419802
LeftLeg 33.552187 -0.000000 -0.000000
LeftFoot -16.550081 27.247853 -6.012332
LeftToeBase 22.145334 -0.000000 -0.000000
RightUpLeg -27.023238 3.501206 4.506221
RightLeg 31.916946 -0.000000 -0.000000
RightFoot -11.260090 -31.604763 11.168261
RightToeBase 8.130427 -0.000000 -0.000000
292
root 19.759417 33.072062 -25.618500 -131.737725 14.851589 -178.424658
Spine 56.978651 15.783125 -9.739743
Head -27.077286 -4.498213 4.621901
LeftShoulder 25.836463 -52.343269 -3.848562
LeftArm 30.281824 17.102856 -56.713100
LeftForeArm -7.859544 -0.000000 8.589437
LeftHand -2.698714 -0.000000 10.787257
LeftHandThumb1 -26.253704 0.000000 33.147579
RightShoulder 21.572068 16.446007 -9.553076
RightArm 51.562970 14.793218 52.064544
RightForeArm -9.194947 -0.000000 12.482060
RightHand -4.979745 -0.000000 -13.022926
RightHandThumb1 -24.326973 -0.000000 -32.862282
LeftUpLeg -80.816927 0.187125 -9.673336
LeftLeg 34.733462 -0.000000 -0.000000
LeftFoot -17.258411 27.092175 -6.179434
LeftToeBase 22.110236 -0.000000 -0.000000
RightUpLeg -26.496138 3.173086 4.293202
RightLeg 31.329531 -0.000000 -0.000000
RightFoot -9.077268 -30.717309 10.661979
RightToeBase 8.549030 -0.000000 -0.000000
293
root 19.770450 32.965969 -25.698189 -131.153526 14.865274 -178.616273
Spine 56.904855 15.915974 -9.752247
Head -27.225059 -4.915480 4.844436
LeftShoulder 25.997452 -52.462605 -3.895548
LeftArm 30.773524 17.067072 -56.795347
LeftForeArm -8.026803 -0.000000 8.699161
LeftHand -2.807877 -0.000000 11.083774
LeftHandThumb1 -26.253704 0.000000 33.147579
RightShoulder 21.608399 16.471901 -9.750094
RightArm 51.372691 15.475605 51.620431
RightForeArm -8.505081 -0.000000 12.343461
RightHand -5.181417 -0.000000 -13.098054
RightHandThumb1 -24.326973 -0.000000 -32.862282
LeftUpLeg -81.942051 0.011973 -9.973597
LeftLeg 35.957781 -0.000000 -0.000000
LeftFoot -17.958114 26.885708 -6.319350
LeftToeBase 22.144576 -0.000000 -0.000000
RightUpLeg -25.969167 2.912610 4.071110
RightLeg 30.695626 -0.000000 -0.000000
RightFoot -7.190707 -29.891218 10.308365
RightToeBase 8.975688 -0.000000 -0.000000
294
root 19.779512 32.853022 -25.776971 -130.603571 14.890924 -178.802311
Spine 56.858501 16.022253 -9.775605
Head -27.444075 -5.274486 4.992066
LeftShoulder 26.150127 -52.695051 -4.024891
LeftArm 31.181980 17.188618 -56.847398
LeftForeArm -8.124694 -0.000000 8.804802
LeftHand -2.838574 0.000000 11.262659
LeftHandThumb1 -26.253704 0.000000 33.147579
RightShoulder 21.643544 16.524834 -9.943485
RightArm 51.241343 16.152609 51.264452
RightForeArm -7.860627 -0.000000 12.125627
RightHand -5.258206 -0.000000 -12.761901
RightHandThumb1 -24.326973 -0.000000 -32.862282
LeftUpLeg -83.053416 -0.140203 -10.302715
LeftLeg 37.205594 -0.000000 -0.000000
LeftFoot -18.639920 26.627382 -6.444346
LeftToeBase 22.116094 -0.000000 -0.000000
RightUpLeg -25.418130 2.551865 3.877466
RightLeg 30.026581 -0.000000 -0.000000
RightFoot -5.619092 -29.091585 10.019924
RightToeBase 8.961422 -0.000000 -0.000000
295
root 19.785440 32.735128 -25.850749 -130.068652 14.974697 -178.970607
Spine 56.813814 16.234864 -9.745001
Head -27.602215 -5.746562 5.156813
LeftShoulder 26.441588 -52.888004 -4.213020
LeftArm 31.551232 17.220519 -56.971226
LeftForeArm -8.225280 -0.000000 8.896729
LeftHand -2.888064 0.000000 11.035220
LeftHandThumb1 -26.253704 0.000000 33.147579
RightShoulder 21.654789 16.599426 -10.092253
RightArm 50.954480 16.784874 50.758326
RightForeArm -7.183388 -0.000000 11.912179
RightHand -5.373906 -0.000000 -12.464782
RightHandThumb1 -24.326973 -0.000000 -32.862282
LeftUpLeg -84.167862 -0.273794 -10.609014
LeftLeg 38.457364 -0.000000 -0.000000
LeftFoot -19.335271 26.557799 -6.567760
LeftToeBase 21.984554 -0.000000 -0.000000
RightUpLeg -24.866892 2.250859 3.647378
RightLeg 29.323903 -0.000000 -0.000000
RightFoot -4.195750 -28.425261 9.709995
RightToeBase 8.738575 -0.000000 -0.000000
296
root 19.795084 32.608753 -25.925541 -129.608123 15.092027 -179.117194
Spine 56.798797 16.396409 -9.827304
Head -27.751291 -6.084316 5.244280
LeftShoulder 26.370779 -52.814301 -4.110468
LeftArm 32.198258 17.270903 -56.840387
LeftForeArm -8.385600 -0.000000 8.987205
LeftHand -2.930051 0.000000 11.234476
LeftHandThumb1 -26.253704 0.000000 33.147579
RightShoulder 21.829407 16.724780 -10.267385
RightArm 50.673341 17.498006 50.481152
RightForeArm -6.680925 -0.000000 11.728168
RightHand -5.549233 -0.000000 -12.184815
RightHandThumb1 -24.326973 -0.000000 -32.862282
LeftUpLeg -85.229604 -0.355218 -10.945879
LeftLeg 39.751019 -0.000000 -0.000000
LeftFoot -20.012145 26.448998 -6.626111
LeftToeBase 21.921556 -0.000000 -0.000000
RightUpLeg -24.237665 1.929853 3.402608
RightLeg 28.604285 -0.000000 -0.000000
RightFoot -2.950186 -27.752645 9.148770
RightToeBase 8.628138 -0.000000 -0.000000
297
root 19.800613 32.479811 -25.999472 -129.201372 15.252809 -179.272266
Spine 56.869657 16.662658 -9.838436
Head -27.967459 -6.497859 5.404697
LeftShoulder 26.550021 -52.864807 -4.126742
LeftArm 32.622580 17.131962 -56.983399
LeftForeArm -8.408049 -0.000000 9.108308
LeftHand -2.937439 -0.000000 11.351524
LeftHandThumb1 -26.253704 0.000000 33.147579
RightShoulder 21.864164 16.723714 -10.451315
RightArm 50.464517 18.212003 50.045008
RightForeArm -5.987881 -0.000000 11.438743
RightHand -5.628536 -0.000000 -11.862840
RightHandThumb1 -24.326973 -0.000000 -32.862282
LeftUpLeg -86.217292 -0.409828 -11.356915
LeftLeg 41.010547 -0.000000 -0.000000
LeftFoot -20.724515 26.307209 -6.633641
LeftToeBase 21.885357 -0.000000 -0.000000
RightUpLeg -23.565857 1.572877 3.136952
RightLeg 27.797666 -0.000000 -0.000000
RightFoot -1.702641 -27.397235 8.768293
RightToeBase 8.306450 -0.000000 -0.000000
298
root 19.806470 32.347257 -26.066450 -128.764049 15.430351 -179.409272
Spine 56.857343 16.865176 -9.966646
Head -28.136285 -6.810501 5.508931
LeftShoulder 26.601616 -53.146245 -4.144304
LeftArm 32.801354 17.151356 -57.212790
LeftForeArm -8.262999 -0.000000 9.246645
LeftHand -3.017289 -0.000000 11.666395
LeftHandThumb1 -26.253704 0.000000 33.147579
RightShoulder 22.054074 16.913146 -10.570927
RightArm 50.073927 18.873742 49.721510
RightForeArm -5.310528 0.000000 11.282611
RightHand -5.958035 0.000000 -11.369732
RightHandThumb1 -24.326973 -0.000000 -32.862282
LeftUpLeg -87.227095 -0.443469 -11.778347
LeftLeg 42.229935 -0.000000 -0.000000
LeftFoot -21.400048 26.177036 -6.598093
LeftToeBase 21.966754 -0.000000 -0.000000
RightUpLeg -22.947678 1.249471 2.868454
RightLeg 26.947711 -0.000000 -0.000000
RightFoot -0.745571 -27.413246 8.485232
RightToeBase 8.503671 -0.000000 -0.000000
299
root 19.797695 32.221265 -26.122672 -128.322341 15.558310 -179.687810
Spine 56.820801 16.929226 -10.020187
Head -28.213799 -7.228041 5.536952
LeftShoulder 26.890451 -53.159766 -4.422890
LeftArm 33.192480 17.471519 -56.914441
LeftForeArm -8.759412 -0.000000 9.514849
LeftHand -3.091940 -0.000000 11.668328
LeftHandThumb1 -26.253704 0.000000 33.147579
RightShoulder 22.179896 17.115662 -10.679618
RightArm 49.653680 19.429543 49.252576
RightForeArm -4.426005 -0.000000 10.940228
RightHand -6.049864 -0.000000 -11.085867
RightHandThumb1 -24.326973 -0.000000 -32.862282
LeftUpLeg -88.110915 -0.940985 -11.568600
LeftLeg 43.175186 -0.000000 -0.000000
LeftFoot -22.024167 26.670782 -6.825579
LeftToeBase 21.827771 -0.000000 -0.000000
RightUpLeg -22.434061 0.717964 2.537183
RightLeg 26.112420 -0.000000 -0.000000
RightFoot 0.152301 -27.590654 8.426852
RightToeBase 8.579644 -0.000000 -0.000000
300
root 19.792417 32.089626 -26.175998 -127.903210 15.690851 -179.925377
Spine 56.805321 17.001246 -10.100369
Head -28.363787 -7.581423 5.540214
LeftShoulder 26.993750 -53.288888 -4.541667
LeftArm 33.472070 17.586930 -56.929655
LeftForeArm -9.000387 -0.000000 9.704288
LeftHand -2.993967 -0.000000 11.711958
LeftHandThumb1 -26.253704 0.000000 33.147579
RightShoulder 22.338643 17.278317 -10.917872
RightArm 49.234513 20.146841 49.076312
RightForeArm -3.614854 -0.000000 10.745824
RightHand -6.386897 0.000000 -10.692458
RightHandThumb1 -24.326973 -0.000000 -32.862282
LeftUpLeg -89.056054 -1.220136 -11.744942
LeftLeg 44.254488 -0.000000 -0.000000
LeftFoot -22.655053 26.777056 -6.942307
LeftToeBase 21.865633 -0.000000 -0.000000
RightUpLeg -21.912305 0.182726 2.233566
RightLeg 25.239294 -0.000000 -0.000000
RightFoot 0.902232 -27.885898 8.612882
RightToeBase 9.012053 -0.000000 -0.000000
301
root 19.786849 31.953151 -26.226692 -127.503310 15.868812 -180.177849
Spine 56.764199 17.136250 -10.210505
Head -28.450116 -7.989150 5.645125
LeftShoulder 27.266666 -53.466793 -4.752901
LeftArm 33.576327 17.558850 -57.111350
LeftForeArm -9.013895 0.000000 9.851226
LeftHand -2.993309 -0.000000 11.833823
LeftHandThumb1 -26.253704 0.000000 33.147579
RightShoulder 22.469914 17.241104 -11.096831
RightArm 48.940023 20.952645 48.824440
RightForeArm -2.735312 -0.000000 10.462292
RightHand -6.505568 -0.000000 -10.239390
RightHandThumb1 -24.326973 -0.000000 -32.862282
LeftUpLeg -89.939110 -1.456474 -11.998244
LeftLeg 45.259719 -0.000000 -0.000000
LeftFoot -23.233280 26.875114 -6.720476
LeftToeBase 22.010658 -0.000000 -0.000000
RightUpLeg -21.384018 -0.262049 1.860937
RightLeg 24.366171 -0.000000 -0.000000
RightFoot 1.939467 -28.243053 8.233754
RightToeBase 9.071163 -0.000000 -0.000000
